<?xml version="1.0" encoding="utf-8"?>
<!-- Generator: Adobe Illustrator 24.2.0, SVG Export Plug-In . SVG Version: 6.00 Build 0)  -->
<svg version="1.1" id="Layer_1" xmlns="http://www.w3.org/2000/svg" xmlns:xlink="http://www.w3.org/1999/xlink" x="0px" y="0px"
	 viewBox="0 0 248 90" style="enable-background:new 0 0 248 90;" xml:space="preserve">
<style type="text/css">
	.st0{fill:#FFFFFF;}
	.st1{fill:#808080;}
	.st2{font-family:'Roboto-Medium';}
	.st3{font-size:7px;}
	.st4{font-family:'Roboto-Light';}
	.st5{font-size:10px;}
	.st6{enable-background:new    ;}
	.st7{fill:#909090;}
	.st8{fill:#FF500D;}
</style>
<g id="Frame_1">
	<g id="Signature_label">
		<path id="Rectangle_1" class="st0" d="M4.8,0h238.4c2.7,0,4.8,2.1,4.8,4.8v80.4c0,2.7-2.1,4.8-4.8,4.8H4.8C2.1,90,0,87.9,0,85.2
			V4.8C0,2.1,2.1,0,4.8,0z"/>
		
			<g id="Electronically_signed_by__x23__x23_SIGNERNAME_x23__x23__Date_and_time_of_signature__x23__x23_SIGNTIME_x23__x23__Authenticated_by__x23__x23_IDP_x23__x23_">
			<text transform="matrix(1 0 0 1 7.2333 14.3926)" class="st1 st2 st3">Electronically signed by  </text>
			<text transform="matrix(1 0 0 1 7.2333 41.3926)" class="st1 st2 st3">Date and time of signature  </text>
			<text transform="matrix(1 0 0 1 7.2333 68.3926)" class="st1 st2 st3">Authenticated by  </text>
			<text transform="matrix(1 0 0 1 7.2333 26.3926)" class="st4 st5">##SIGNERNAME##  </text>
			<text transform="matrix(1 0 0 1 7.2333 53.3926)" class="st4 st5">##SIGNTIME##  </text>
			<text transform="matrix(1 0 0 1 7.2333 80.3926)" class="st4 st5">##IDP##</text>
			<text transform="matrix(1 0 0 1 7.2333 31.3926)" class="st4 st5"> </text>
			<text transform="matrix(1 0 0 1 7.2333 58.3926)" class="st4 st5"> </text>
		</g>
		<g id="eduSign">
			<g class="st6">
				<path class="st7" d="M214.1,15.3c-0.6,0-1.1-0.2-1.5-0.6c-0.4-0.4-0.6-0.9-0.6-1.5v-0.1c0-0.4,0.1-0.8,0.2-1.1
					c0.2-0.3,0.4-0.6,0.7-0.8c0.3-0.2,0.6-0.3,1-0.3c0.6,0,1,0.2,1.3,0.6c0.3,0.4,0.5,0.9,0.5,1.6v0.4H213c0,0.3,0.1,0.6,0.3,0.8
					c0.2,0.2,0.5,0.3,0.8,0.3c0.4,0,0.8-0.2,1.1-0.5l0.5,0.5c-0.2,0.3-0.4,0.4-0.7,0.6C214.7,15.2,214.4,15.3,214.1,15.3z
					 M213.9,11.7c-0.3,0-0.5,0.1-0.6,0.3s-0.3,0.4-0.3,0.8h1.8v-0.1c0-0.3-0.1-0.6-0.3-0.7S214.2,11.7,213.9,11.7z"/>
				<path class="st7" d="M216,13.1c0-0.7,0.2-1.2,0.5-1.6c0.3-0.4,0.7-0.6,1.2-0.6c0.4,0,0.8,0.2,1.1,0.5V9.2h0.9v6h-0.9l0-0.4
					c-0.3,0.3-0.7,0.5-1.1,0.5c-0.5,0-0.9-0.2-1.2-0.6C216.1,14.3,216,13.8,216,13.1z M216.9,13.2c0,0.4,0.1,0.8,0.2,1
					c0.2,0.2,0.4,0.4,0.7,0.4c0.4,0,0.7-0.2,0.9-0.5v-1.8c-0.2-0.3-0.5-0.5-0.8-0.5c-0.3,0-0.5,0.1-0.7,0.4
					C217,12.3,216.9,12.7,216.9,13.2z"/>
				<path class="st7" d="M222.9,14.8c-0.3,0.3-0.7,0.5-1.2,0.5c-0.5,0-0.8-0.1-1-0.4c-0.2-0.3-0.4-0.7-0.4-1.2V11h0.9v2.7
					c0,0.5,0.2,0.8,0.7,0.8c0.5,0,0.8-0.2,0.9-0.5v-3h0.9v4.2h-0.9L222.9,14.8z"/>
			</g>
			<g class="st6">
				<path class="st8" d="M227.6,13.8c0-0.2-0.1-0.4-0.3-0.6s-0.5-0.3-1-0.4c-0.5-0.1-0.8-0.3-1.1-0.5c-0.5-0.3-0.8-0.8-0.8-1.3
					c0-0.5,0.2-0.8,0.6-1.1c0.4-0.3,0.9-0.4,1.5-0.4c0.4,0,0.7,0.1,1.1,0.2c0.3,0.1,0.6,0.4,0.7,0.6c0.2,0.3,0.3,0.6,0.3,0.9h-1
					c0-0.3-0.1-0.5-0.3-0.7c-0.2-0.2-0.5-0.3-0.8-0.3c-0.3,0-0.6,0.1-0.8,0.2c-0.2,0.1-0.3,0.3-0.3,0.6c0,0.2,0.1,0.4,0.3,0.5
					c0.2,0.1,0.5,0.3,1,0.4c0.4,0.1,0.8,0.3,1.1,0.4c0.3,0.2,0.5,0.4,0.6,0.6s0.2,0.5,0.2,0.8c0,0.5-0.2,0.9-0.5,1.1
					s-0.9,0.4-1.5,0.4c-0.4,0-0.8-0.1-1.1-0.2c-0.3-0.2-0.6-0.4-0.8-0.6s-0.3-0.6-0.3-0.9h1c0,0.3,0.1,0.6,0.3,0.8
					c0.2,0.2,0.5,0.3,0.9,0.3c0.3,0,0.6-0.1,0.8-0.2C227.5,14.2,227.6,14,227.6,13.8z"/>
				<path class="st8" d="M229,9.9c0-0.1,0-0.3,0.1-0.4c0.1-0.1,0.2-0.1,0.4-0.1s0.3,0,0.4,0.1s0.1,0.2,0.1,0.4c0,0.1,0,0.3-0.1,0.4
					s-0.2,0.1-0.4,0.1s-0.3,0-0.4-0.1C229,10.2,229,10.1,229,9.9z M230,15.2h-0.9V11h0.9V15.2z"/>
				<path class="st8" d="M230.6,13.1c0-0.7,0.2-1.2,0.5-1.6s0.7-0.6,1.2-0.6c0.5,0,0.9,0.2,1.1,0.5l0-0.4h0.9v4.1
					c0,0.6-0.2,1-0.5,1.3c-0.3,0.3-0.8,0.5-1.4,0.5c-0.3,0-0.6-0.1-0.9-0.2c-0.3-0.1-0.5-0.3-0.7-0.5l0.4-0.6
					c0.3,0.3,0.7,0.5,1.1,0.5c0.3,0,0.6-0.1,0.7-0.3c0.2-0.2,0.3-0.4,0.3-0.8v-0.3c-0.3,0.3-0.6,0.5-1.1,0.5c-0.5,0-0.9-0.2-1.2-0.6
					C230.7,14.3,230.6,13.8,230.6,13.1z M231.5,13.2c0,0.4,0.1,0.8,0.3,1c0.2,0.2,0.4,0.4,0.7,0.4c0.4,0,0.7-0.2,0.9-0.5v-1.9
					c-0.2-0.3-0.5-0.5-0.8-0.5c-0.3,0-0.6,0.1-0.7,0.4C231.6,12.3,231.5,12.7,231.5,13.2z"/>
				<path class="st8" d="M235.8,11l0,0.5c0.3-0.4,0.7-0.6,1.2-0.6c0.9,0,1.3,0.5,1.3,1.5v2.8h-0.9v-2.7c0-0.3-0.1-0.5-0.2-0.6
					c-0.1-0.1-0.3-0.2-0.6-0.2c-0.4,0-0.7,0.2-0.9,0.5v3h-0.9V11H235.8z"/>
			</g>
		</g>
	</g>
</g>
</svg>
